<?xml version="1.0" encoding="UTF-8" standalone="no"?>
<!DOCTYPE svg PUBLIC "-//W3C//DTD SVG 1.1//EN" "http://www.w3.org/Graphics/SVG/1.1/DTD/svg11.dtd">
<svg xmlns="http://www.w3.org/2000/svg" version="1.1" viewBox="0 0 487 412" width="487.0pt" height="412.0pt">
<path d="M 0.00 0.00 L 487.00 0.00 L 487.00 412.00 L 0.00 412.00 L 0.00 0.00 Z" fill="#3d2012" />
<path d="M 259.23 52.79 C 265.06 54.71 269.52 58.32 274.85 61.22 C 277.07 62.41 277.65 65.33 278.53 67.50 C 280.89 68.30 283.18 69.20 285.44 70.23 C 284.43 65.59 283.58 59.45 285.97 55.13 C 288.47 50.88 293.47 49.58 298.04 51.01 C 302.98 52.20 305.80 54.31 308.17 58.81 C 309.90 55.35 311.66 52.56 315.98 52.54 C 320.27 52.89 325.88 56.28 326.40 60.92 C 326.86 64.64 324.17 66.76 322.00 69.30 C 323.22 73.26 325.04 77.19 323.34 81.30 C 322.03 84.82 318.96 86.07 316.10 88.10 C 319.12 87.55 322.60 86.06 325.55 87.45 C 329.02 88.78 330.52 91.93 332.43 94.85 C 335.14 96.03 338.66 97.09 339.76 100.17 C 340.53 103.19 340.38 106.50 340.58 109.60 C 351.49 117.27 358.01 129.95 358.24 143.26 C 359.47 142.56 360.69 141.86 362.00 141.30 C 365.07 141.22 367.03 144.12 366.00 146.95 C 363.90 152.81 360.02 158.21 358.27 164.24 C 357.76 167.78 358.52 171.45 358.15 175.03 C 357.79 179.27 356.06 182.70 354.77 186.64 C 354.16 188.29 355.20 190.41 355.50 192.07 C 357.40 198.95 357.13 206.31 353.70 212.68 C 349.45 220.60 342.45 225.32 334.54 229.12 C 332.57 239.61 326.41 249.04 316.54 253.57 C 310.78 256.30 304.24 256.24 298.47 258.53 C 293.57 261.70 290.16 266.29 284.52 268.62 C 279.18 271.13 273.74 271.03 267.98 270.75 C 262.50 270.43 258.77 273.27 253.57 274.32 C 246.74 275.74 239.12 275.25 232.78 272.21 C 230.53 271.28 228.56 270.24 226.04 270.40 C 221.19 270.63 216.73 271.26 211.93 269.96 C 207.26 268.89 203.34 266.36 199.80 263.22 C 197.46 261.32 194.95 258.56 191.99 257.80 C 186.35 256.23 180.90 255.97 175.47 253.41 C 167.61 249.66 162.31 242.81 159.21 234.80 C 157.79 230.51 154.24 229.64 151.10 226.87 C 147.67 224.20 145.71 220.66 143.73 216.88 C 139.96 222.29 136.90 228.08 133.61 233.77 C 132.34 236.68 127.35 236.69 125.96 233.86 C 124.18 230.63 124.98 226.43 125.55 222.97 C 127.14 214.27 128.21 205.85 126.96 197.01 C 126.17 190.70 123.88 185.49 124.56 178.97 C 124.88 174.92 126.85 171.53 129.59 168.62 C 132.96 165.22 133.99 161.18 136.29 156.92 C 134.06 148.28 133.23 139.62 136.14 131.00 C 138.92 122.27 144.43 115.03 151.73 109.55 C 152.45 102.51 152.26 96.14 155.69 89.71 C 160.62 80.56 169.64 75.27 179.26 72.18 C 183.16 71.13 184.66 68.07 187.46 65.46 C 193.25 59.55 200.75 55.85 208.99 54.99 C 214.95 54.16 220.19 55.64 226.02 56.35 C 229.10 56.88 232.45 54.57 235.27 53.44 C 242.83 49.94 251.45 50.00 259.23 52.79 Z" fill="#fbdbaa" />
<path d="M 292.43 53.50 C 296.11 53.06 300.98 54.98 303.08 58.11 C 305.08 62.83 301.53 66.48 298.18 69.24 C 295.79 71.23 291.06 71.74 289.47 68.49 C 287.83 65.48 287.52 61.51 288.24 58.19 C 288.72 55.96 290.10 54.01 292.43 53.50 Z" fill="#3d2012" />
<path d="M 245.97 54.29 C 253.22 53.53 260.03 56.01 265.94 60.07 C 268.09 61.63 270.67 62.67 272.66 64.42 C 273.67 66.31 272.95 69.27 272.98 71.39 C 275.49 71.14 278.08 70.27 280.42 71.57 C 282.80 72.71 284.37 75.36 285.92 77.42 C 288.28 77.09 291.46 75.82 293.53 77.44 C 297.00 79.83 297.43 83.94 298.35 87.71 C 301.93 87.23 306.37 86.02 309.88 87.15 C 312.95 88.15 313.74 91.00 315.19 93.55 C 318.08 91.17 320.36 88.97 324.36 90.64 C 326.39 92.56 327.41 95.53 329.31 97.54 C 331.24 98.48 333.34 99.11 335.35 99.86 C 335.33 103.74 335.23 107.62 335.16 111.50 C 344.53 117.50 351.02 127.40 352.06 138.54 C 352.76 146.60 350.47 153.56 348.74 161.45 C 348.10 160.20 347.02 158.56 347.26 157.10 C 347.90 152.95 350.11 148.98 351.09 144.97 C 350.70 141.69 350.00 138.44 349.45 135.18 C 347.44 125.61 341.33 117.65 332.80 112.92 C 332.44 109.49 332.75 105.66 331.64 102.38 C 330.21 100.85 328.33 99.72 326.98 98.13 C 325.50 96.17 324.29 93.98 322.99 91.89 C 319.81 94.14 317.10 96.92 314.01 99.27 C 313.30 96.88 312.75 94.42 311.86 92.08 C 311.39 90.85 310.36 89.32 308.90 89.27 C 304.76 89.04 300.51 90.09 296.38 90.43 C 295.18 86.99 295.12 82.10 292.57 79.44 C 290.27 78.60 287.17 80.15 284.88 80.65 C 283.12 78.19 281.25 73.58 277.91 73.11 C 275.06 73.35 272.26 74.72 269.56 75.57 C 269.58 72.12 269.76 68.68 269.90 65.24 C 262.46 62.04 254.38 56.09 245.97 56.70 C 238.12 57.05 232.44 63.45 225.00 62.51 C 217.77 61.54 209.65 59.87 202.50 62.47 C 195.32 65.10 190.45 70.29 186.08 76.33 C 177.47 78.94 168.82 81.59 163.14 89.10 C 158.02 95.90 159.04 104.91 158.17 112.91 C 147.59 118.64 140.70 129.97 140.66 142.00 C 140.65 146.98 142.36 151.35 143.28 156.14 C 142.97 159.74 140.61 161.78 137.70 163.51 C 138.81 160.32 141.64 157.21 140.43 153.75 C 138.41 146.25 137.76 138.68 140.35 131.22 C 143.08 122.70 148.75 116.05 156.16 111.20 C 156.67 103.34 156.18 95.66 160.79 88.83 C 166.28 80.67 175.70 77.15 184.71 74.44 C 187.63 70.71 190.55 67.17 194.46 64.43 C 200.90 59.69 209.08 57.93 216.94 59.11 C 221.69 59.63 226.86 61.64 231.42 59.40 C 236.27 57.24 240.51 54.76 245.97 54.29 Z" fill="#3d2012" />
<path d="M 313.34 56.29 C 315.79 54.23 321.97 57.78 321.60 61.01 C 320.42 63.28 317.88 65.86 315.06 65.13 C 312.34 63.90 311.01 58.08 313.34 56.29 Z" fill="#3d2012" />
<path d="M 311.55 68.67 C 313.84 67.85 316.14 68.41 317.47 70.52 C 319.04 73.25 320.08 77.23 317.92 79.95 C 316.07 82.60 311.89 82.00 309.19 81.37 C 306.19 80.56 303.64 78.30 304.54 74.90 C 305.59 71.97 308.77 69.79 311.55 68.67 Z" fill="#3d2012" />
<path d="M 300.68 74.24 C 300.51 78.35 301.46 81.15 303.22 84.79 C 301.62 81.69 300.03 78.62 298.02 75.75 C 298.91 75.25 299.79 74.75 300.68 74.24 Z" fill="#3d2012" />
<path d="M 240.15 87.91 C 241.21 89.16 242.81 90.19 242.82 91.99 C 242.95 97.89 240.62 104.16 238.87 109.76 C 233.24 126.50 226.73 142.93 220.86 159.59 C 227.62 159.78 234.41 159.73 241.19 159.71 C 242.67 156.25 243.00 151.48 246.88 149.87 C 246.26 156.11 242.96 162.01 241.24 168.09 C 244.61 165.56 247.71 162.43 251.33 160.30 C 254.23 158.70 257.59 157.87 260.73 159.35 C 264.09 160.72 267.25 164.16 270.98 163.71 C 274.23 163.53 278.56 162.15 279.63 158.69 C 281.38 155.20 281.03 151.27 285.36 150.00 C 284.06 156.28 281.20 162.05 279.32 168.24 C 283.66 164.91 288.42 159.57 293.96 158.68 C 298.82 157.76 302.24 161.93 306.44 163.45 C 310.47 164.30 315.02 163.02 317.46 159.54 C 319.14 157.64 321.11 153.95 323.98 154.06 C 326.18 153.90 326.09 155.70 327.11 157.17 C 325.66 157.15 324.21 157.12 322.76 157.09 C 320.64 159.82 319.22 162.42 318.02 165.68 C 319.78 165.16 321.52 164.61 323.26 164.04 C 322.44 163.34 321.62 162.64 320.79 161.94 C 321.03 160.96 321.27 159.98 321.50 159.01 C 323.24 158.77 325.25 158.04 326.97 158.45 C 327.94 159.13 328.89 159.85 329.80 160.61 C 331.74 160.58 333.68 160.52 335.62 160.46 C 335.22 161.41 334.83 162.36 334.43 163.31 C 332.25 163.40 330.06 163.50 327.88 163.61 C 325.25 165.65 321.63 168.95 318.06 168.30 C 316.99 167.38 316.10 166.33 315.16 165.29 C 311.13 166.24 307.48 167.46 303.57 165.26 C 300.66 163.90 297.26 160.41 293.90 161.55 C 287.51 163.24 283.54 170.32 276.87 172.26 L 275.54 171.29 C 275.88 169.25 276.47 167.32 277.05 165.34 C 274.14 165.99 270.86 166.93 267.89 166.28 C 264.35 165.36 261.54 162.24 258.06 161.36 C 253.98 161.05 250.54 164.19 247.59 166.61 C 244.50 169.40 241.33 171.47 237.29 172.63 C 237.81 169.21 238.82 165.94 239.89 162.66 C 233.21 162.59 226.54 162.53 219.86 162.56 C 215.09 176.82 210.06 191.59 207.84 206.49 C 207.15 209.74 208.00 212.76 204.62 214.62 C 204.32 209.24 205.22 204.02 206.36 198.79 C 209.02 186.40 212.80 174.53 216.85 162.54 C 206.41 162.19 195.93 162.30 185.49 162.51 C 168.32 180.93 149.96 200.35 136.92 221.94 C 134.18 226.27 132.63 230.72 128.90 233.97 C 128.13 230.90 127.79 227.91 128.37 224.77 C 129.96 215.09 131.44 205.81 129.83 195.98 C 129.13 189.71 126.24 183.32 127.98 177.07 C 129.79 170.59 135.50 166.86 141.55 164.83 C 151.02 161.95 161.41 161.11 171.23 160.21 C 175.63 159.77 180.03 159.69 184.44 159.60 C 201.48 140.88 218.35 123.58 231.90 101.91 C 234.84 97.35 237.22 92.47 240.15 87.91 Z" fill="#3d2012" />
<path d="M 239.94 94.17 C 238.94 101.47 236.51 108.12 234.10 115.03 C 228.82 129.93 223.04 144.66 217.93 159.61 C 208.08 159.63 198.23 159.50 188.38 159.56 C 192.11 155.24 196.03 151.11 199.93 146.95 C 211.84 133.87 223.11 120.67 232.78 105.80 C 235.26 101.97 237.51 98.02 239.94 94.17 Z" fill="#fbdbaa" />
<path d="M 348.59 142.90 C 346.83 148.39 343.85 153.39 341.90 158.82 C 339.35 166.12 336.21 172.33 337.37 180.30 C 339.42 178.69 341.39 177.05 343.05 175.03 C 349.94 166.37 354.11 156.87 359.56 147.57 C 360.75 146.11 361.23 143.86 363.58 144.66 C 359.53 155.85 351.82 165.48 351.94 178.27 C 351.20 177.59 350.44 176.94 349.79 176.17 C 349.38 173.43 350.29 170.39 350.84 167.70 C 348.19 172.11 345.35 177.04 341.37 180.37 C 339.59 181.82 337.96 182.26 335.76 181.43 C 333.72 178.53 334.55 175.29 335.11 172.06 C 336.76 164.50 339.88 157.13 342.92 150.03 C 344.43 147.00 344.98 144.09 348.59 142.90 Z" fill="#3d2012" />
<path d="M 181.37 162.61 C 166.71 178.72 152.28 193.83 139.98 211.98 C 136.83 216.54 134.05 221.32 131.08 226.00 C 131.98 218.58 133.76 211.54 133.41 204.00 C 133.58 196.70 131.21 190.10 130.30 183.00 C 129.61 178.16 131.90 173.60 135.82 170.83 C 140.83 167.26 147.59 165.94 153.54 164.89 C 162.75 163.57 172.08 162.97 181.37 162.61 Z" fill="#fbdbaa" />
<path d="M 138.50 172.61 C 139.41 175.32 140.48 178.03 141.15 180.81 C 141.81 183.68 141.25 187.01 142.28 189.75 C 143.42 192.17 145.78 194.13 147.59 196.06 C 147.18 196.91 146.77 197.76 146.36 198.61 C 144.72 196.59 142.90 194.69 141.37 192.59 C 139.54 190.00 139.56 187.01 139.32 183.98 C 139.13 180.37 137.90 177.30 136.78 173.92 C 137.36 173.48 137.93 173.05 138.50 172.61 Z" fill="#3d2012" />
<path d="M 133.53 179.08 C 135.33 184.78 134.76 189.94 137.72 195.27 C 138.94 197.85 141.25 200.25 141.84 203.04 C 140.83 206.38 138.06 209.27 136.21 212.21 C 136.31 207.01 136.53 201.92 135.87 196.77 C 135.17 190.69 132.91 185.32 133.53 179.08 Z" fill="#3d2012" />
<path d="M 350.40 179.35 C 349.75 181.75 348.85 184.04 347.85 186.32 C 350.86 193.69 352.36 201.23 348.71 208.71 C 344.37 217.14 336.98 220.82 328.81 224.68 C 328.36 235.59 320.80 246.32 310.01 249.09 C 305.35 250.50 300.10 250.65 295.66 252.66 C 290.13 255.80 286.79 261.13 280.37 263.39 C 272.80 266.41 265.69 262.59 258.11 266.10 C 251.90 268.88 245.21 269.54 238.57 268.04 C 233.97 266.88 230.97 263.96 226.02 264.18 C 220.60 264.31 215.79 265.27 210.50 263.31 C 203.94 261.08 200.34 255.26 194.67 252.38 C 188.24 249.92 180.95 250.40 174.59 246.40 C 167.44 242.00 164.16 234.88 161.48 227.27 C 157.83 224.88 154.33 222.93 151.52 219.49 C 149.08 216.27 146.81 213.20 148.23 208.99 C 150.40 213.53 151.76 217.83 156.04 220.91 C 158.89 223.33 163.29 224.68 164.32 228.48 C 166.56 234.45 168.94 239.88 174.31 243.71 C 180.25 248.01 187.56 247.81 194.29 249.85 C 200.46 252.03 204.50 258.69 210.80 261.19 C 217.40 264.13 225.54 260.59 232.04 263.06 C 235.71 264.57 238.88 266.46 242.97 266.63 C 248.30 267.24 253.02 266.04 257.84 263.87 C 265.78 260.35 273.41 264.65 280.88 260.91 C 286.53 258.30 290.43 252.39 296.06 250.06 C 302.13 247.99 309.57 248.17 315.49 244.47 C 322.59 239.92 326.58 231.85 326.53 223.47 C 331.80 220.42 337.04 218.66 341.57 214.59 C 345.83 210.89 348.71 205.75 348.75 200.02 C 348.84 195.00 346.98 190.63 345.05 186.12 C 346.56 183.51 347.68 180.95 350.40 179.35 Z" fill="#3d2012" />
<path d="M 68.15 286.63 C 69.21 286.34 70.27 286.04 71.33 285.74 C 71.15 288.78 70.84 291.76 69.92 294.67 C 67.69 292.29 66.41 289.65 63.00 288.81 C 59.11 287.60 55.08 289.67 53.01 293.01 C 50.99 296.06 50.99 299.54 51.30 303.06 C 51.71 307.20 54.79 311.24 59.03 311.93 C 62.78 312.72 66.62 310.06 70.15 308.95 L 70.41 311.12 C 64.47 317.88 52.66 316.52 47.88 309.08 C 43.29 301.94 45.46 292.21 52.65 287.73 C 57.59 284.53 62.74 285.34 68.15 286.63 Z" fill="#fbdbaa" />
<path d="M 87.36 286.38 C 91.80 284.81 97.09 285.22 101.03 287.92 C 106.58 291.52 109.16 298.89 106.94 305.15 C 104.94 311.48 98.68 315.92 91.99 315.46 C 84.34 315.25 77.75 308.71 77.65 301.02 C 77.29 294.59 81.36 288.60 87.36 286.38 Z" fill="#fbdbaa" />
<path d="M 124.38 286.40 C 132.59 283.29 142.09 287.96 144.27 296.52 C 146.75 305.38 140.24 314.84 131.02 315.43 C 123.01 316.13 115.42 310.12 114.78 302.01 C 114.06 295.17 117.96 288.82 124.38 286.40 Z" fill="#fbdbaa" />
<path d="M 161.32 286.30 C 161.34 286.94 161.36 287.58 161.37 288.22 C 160.69 288.70 160.01 289.17 159.33 289.64 C 159.33 292.24 159.34 294.84 159.34 297.44 C 162.09 294.19 167.80 291.01 167.36 286.33 C 169.75 286.24 172.13 286.21 174.51 286.20 C 174.56 286.82 174.60 287.44 174.65 288.06 C 169.60 290.92 166.23 295.03 162.14 299.02 C 166.63 303.71 170.53 309.74 176.02 313.04 C 176.19 313.61 176.37 314.17 176.54 314.74 C 174.17 314.74 171.81 314.74 169.44 314.74 C 166.03 310.98 162.69 307.16 159.33 303.36 C 159.31 306.04 159.33 308.73 159.35 311.41 C 160.04 311.90 160.73 312.38 161.42 312.86 C 161.35 313.49 161.28 314.11 161.21 314.73 C 158.04 314.75 154.87 314.76 151.71 314.57 C 152.54 313.33 153.39 312.09 154.25 310.86 C 154.38 303.80 154.31 296.72 154.30 289.66 C 153.26 288.88 152.23 288.10 151.19 287.31 C 154.49 285.89 157.82 286.10 161.32 286.30 Z" fill="#fbdbaa" />
<path d="M 191.31 286.35 C 191.32 286.96 191.33 287.58 191.34 288.19 C 190.64 288.67 189.95 289.14 189.25 289.62 C 189.24 296.87 189.20 304.12 189.28 311.36 C 190.00 311.86 190.71 312.35 191.42 312.85 C 191.34 313.47 191.27 314.09 191.20 314.72 C 188.00 314.77 184.81 314.77 181.62 314.56 C 182.47 313.29 183.34 312.04 184.21 310.79 C 184.29 303.83 184.28 296.88 184.24 289.92 C 183.32 289.06 182.42 288.18 181.53 287.29 C 184.72 285.56 187.83 286.26 191.31 286.35 Z" fill="#fbdbaa" />
<path d="M 217.54 286.49 C 218.77 288.13 217.75 290.68 217.68 292.58 C 216.56 291.56 215.43 290.54 214.32 289.51 C 212.17 289.44 210.02 289.38 207.87 289.33 C 207.88 292.52 207.88 295.71 207.88 298.90 C 209.56 298.90 211.24 298.88 212.92 298.85 C 214.15 298.11 215.38 297.38 216.62 296.66 C 216.72 299.28 216.73 301.89 216.62 304.51 C 215.33 303.67 214.05 302.81 212.77 301.95 C 211.13 302.00 209.49 302.08 207.85 302.20 C 207.87 305.28 207.88 308.36 207.92 311.44 C 210.25 311.46 212.57 311.46 214.90 311.42 C 215.99 310.29 217.09 309.18 218.20 308.08 C 218.52 310.37 219.01 312.36 217.72 314.48 C 212.07 315.00 205.72 315.06 200.11 314.14 C 201.00 313.19 201.90 312.25 202.80 311.31 C 202.75 304.18 203.13 296.98 202.62 289.87 C 202.09 288.87 201.55 287.87 201.00 286.88 C 206.23 285.65 212.22 285.97 217.54 286.49 Z" fill="#fbdbaa" />
<path d="M 249.56 286.40 C 248.10 291.09 245.03 294.30 242.21 298.18 C 238.98 302.57 235.75 306.95 232.57 311.38 C 236.95 311.42 241.32 311.44 245.70 311.21 C 247.04 310.05 248.41 308.93 249.80 307.84 C 249.71 310.19 249.31 312.44 248.76 314.72 C 240.96 314.52 232.88 315.36 225.16 314.25 C 226.20 311.05 228.18 308.75 230.13 306.10 C 234.23 300.62 238.26 295.08 242.32 289.56 C 238.14 289.52 233.96 289.51 229.79 289.64 C 229.06 290.65 228.33 291.67 227.59 292.68 C 226.92 292.57 226.26 292.46 225.59 292.34 C 225.65 290.41 225.70 288.48 225.83 286.55 C 233.65 285.78 241.71 286.11 249.56 286.40 Z" fill="#fbdbaa" />
<path d="M 262.42 285.56 C 263.75 285.55 265.07 285.58 266.39 285.63 C 267.57 287.88 268.39 289.95 267.32 292.46 C 266.45 294.80 264.42 295.05 262.43 296.17 C 262.88 294.63 263.37 293.09 263.92 291.57 C 261.84 289.14 261.53 288.72 262.42 285.56 Z" fill="#fbdbaa" />
<path d="M 286.04 285.36 C 289.35 292.89 291.56 300.90 294.48 308.59 C 295.39 311.13 297.28 312.69 299.03 314.67 C 295.22 314.76 291.42 314.78 287.61 314.60 C 288.38 313.50 289.18 312.41 289.99 311.34 C 289.29 308.95 288.53 306.58 287.77 304.21 C 285.25 304.18 282.73 304.18 280.20 304.19 C 279.52 306.35 278.59 308.59 278.37 310.86 C 278.66 312.20 279.22 313.48 279.69 314.77 C 276.99 314.73 274.30 314.73 271.60 314.65 C 273.00 312.59 274.52 310.87 275.42 308.54 C 278.06 301.60 279.76 294.26 282.56 287.39 C 283.10 285.86 284.71 285.98 286.04 285.36 Z" fill="#fbdbaa" />
<path d="M 309.31 285.97 C 315.40 292.87 321.62 299.64 327.65 306.59 C 327.68 300.96 327.67 295.32 327.58 289.68 C 326.60 288.90 325.63 288.11 324.65 287.32 C 328.01 285.71 330.34 285.95 333.77 287.07 C 332.79 288.02 331.81 288.97 330.83 289.92 C 330.74 296.96 330.83 304.00 330.81 311.03 C 330.57 312.79 331.27 314.43 329.34 315.33 C 322.57 308.98 316.78 301.52 310.43 294.74 C 310.38 300.27 310.38 305.80 310.49 311.33 C 311.19 311.82 311.90 312.30 312.60 312.79 C 312.58 313.46 312.55 314.13 312.53 314.80 C 309.96 314.75 307.40 314.70 304.83 314.52 C 305.62 313.27 306.43 312.03 307.24 310.80 C 307.47 304.21 307.37 297.60 307.34 291.01 C 305.80 289.86 304.25 288.71 302.71 287.55 C 304.78 286.27 306.93 286.13 309.31 285.97 Z" fill="#fbdbaa" />
<path d="M 346.82 285.88 C 352.84 292.84 359.02 299.70 365.23 306.49 C 365.28 300.93 365.32 295.41 365.18 289.85 C 364.16 288.98 363.15 288.09 362.14 287.20 C 365.24 286.03 367.82 285.79 371.01 286.83 C 370.20 287.95 369.28 288.97 368.36 290.00 C 368.12 298.58 368.55 307.18 368.05 315.74 C 363.99 313.41 361.53 309.90 358.46 306.52 C 354.91 302.61 351.46 298.61 347.90 294.71 C 348.03 300.02 347.42 305.54 348.21 310.80 C 349.17 312.25 350.63 313.41 351.87 314.64 C 348.82 314.70 345.78 314.73 342.73 314.71 C 342.69 314.10 342.66 313.49 342.62 312.87 C 343.31 312.40 343.99 311.92 344.68 311.44 C 344.68 304.75 345.19 297.86 344.52 291.21 C 343.25 289.64 341.63 288.33 340.20 286.91 C 342.40 286.50 344.61 286.18 346.82 285.88 Z" fill="#fbdbaa" />
<path d="M 390.26 286.23 C 394.50 284.86 399.56 285.24 403.33 287.75 C 409.60 291.69 412.02 300.13 408.82 306.82 C 406.15 312.88 399.45 316.34 392.94 315.30 C 385.49 314.34 379.85 307.44 380.12 299.98 C 380.21 293.69 384.37 288.29 390.26 286.23 Z" fill="#fbdbaa" />
<path d="M 427.28 286.26 C 427.33 286.90 427.37 287.54 427.42 288.18 C 426.71 288.68 426.00 289.19 425.29 289.69 C 425.37 295.44 424.97 301.27 425.52 306.99 C 425.84 310.52 429.58 313.20 433.02 312.07 C 435.82 311.25 437.55 309.10 437.86 306.21 C 438.40 300.75 438.07 295.16 437.84 289.68 C 436.91 288.81 435.99 287.94 435.08 287.06 C 439.34 285.59 443.47 286.20 447.83 286.74 C 446.29 287.65 444.74 288.55 443.19 289.45 C 443.11 296.74 443.13 304.03 443.16 311.32 C 444.10 312.17 445.04 313.04 445.97 313.90 C 443.65 314.49 441.29 314.76 438.90 314.99 C 438.60 314.41 438.30 313.82 438.00 313.24 C 435.36 314.40 432.95 315.68 429.96 315.45 C 425.47 315.19 420.93 311.65 420.49 307.00 C 420.04 301.33 420.46 295.59 420.27 289.90 C 419.40 289.05 418.53 288.19 417.67 287.32 C 420.77 285.62 423.86 286.25 427.28 286.26 Z" fill="#fbdbaa" />
<path d="M 89.20 289.24 C 93.83 287.12 99.66 289.75 101.31 294.53 C 102.73 298.68 102.67 303.76 100.72 307.73 C 97.91 312.95 90.44 313.90 86.26 309.74 C 82.78 306.21 83.01 301.62 83.40 297.01 C 83.75 293.67 86.01 290.45 89.20 289.24 Z" fill="#3d2012" />
<path d="M 125.48 289.58 C 130.28 286.93 136.49 289.41 138.34 294.49 C 139.69 298.64 139.74 303.78 137.76 307.74 C 134.98 312.94 127.41 313.90 123.28 309.72 C 120.10 306.40 120.05 302.30 120.34 297.96 C 120.53 294.53 122.32 291.14 125.48 289.58 Z" fill="#3d2012" />
<path d="M 391.32 289.38 C 396.51 286.85 402.75 289.98 404.13 295.50 C 405.25 300.45 405.20 307.33 400.62 310.62 C 395.83 314.08 388.71 312.09 386.62 306.52 C 384.54 301.08 385.14 292.00 391.32 289.38 Z" fill="#3d2012" />
<path d="M 283.90 293.35 C 284.73 295.81 285.56 298.28 286.39 300.75 C 284.66 300.77 282.94 300.79 281.22 300.80 C 282.11 298.32 282.97 295.82 283.90 293.35 Z" fill="#3d2012" />
<path d="M 249.50 325.87 C 254.56 326.01 259.52 326.41 264.57 325.70 C 264.59 327.01 264.60 328.33 264.62 329.64 C 262.62 328.88 260.60 328.21 258.55 327.59 C 258.43 332.93 258.09 337.96 259.18 343.22 C 257.84 343.25 256.50 343.28 255.15 343.32 C 255.58 338.04 255.55 332.76 255.37 327.48 C 253.17 328.24 251.02 329.10 248.88 330.00 C 249.07 328.62 249.22 327.23 249.50 325.87 Z" fill="#fbdbaa" />
<path d="M 122.41 325.60 C 123.74 326.25 125.58 326.26 126.10 327.83 C 127.57 330.98 128.64 334.33 129.95 337.56 C 131.19 334.30 132.23 330.89 133.80 327.77 C 134.33 326.23 136.18 326.23 137.51 325.60 C 137.16 331.59 137.51 337.32 138.50 343.23 C 137.10 343.23 135.71 343.23 134.31 343.22 C 134.58 339.27 134.51 335.33 134.35 331.37 C 132.76 335.51 131.27 339.61 129.13 343.51 C 127.40 339.78 125.97 335.94 124.44 332.13 C 124.28 335.85 124.25 339.55 124.60 343.26 L 121.42 343.25 C 122.51 337.25 122.84 331.68 122.41 325.60 Z" fill="#fbdbaa" />
<path d="M 150.41 325.25 C 151.81 326.50 152.93 327.68 153.51 329.51 C 155.10 334.05 156.60 338.61 158.48 343.04 C 156.78 343.15 155.08 343.24 153.39 343.33 C 153.73 342.59 154.08 341.85 154.42 341.11 C 153.92 339.66 153.42 338.22 152.92 336.77 C 151.37 336.76 149.82 336.74 148.27 336.72 C 147.82 338.87 147.44 341.03 147.11 343.20 C 146.06 343.21 145.00 343.21 143.95 343.21 C 146.55 337.37 148.10 331.20 150.41 325.25 Z" fill="#fbdbaa" />
<path d="M 164.81 326.34 C 168.49 326.05 173.79 325.62 176.81 328.18 C 181.10 331.65 180.90 339.08 176.04 342.00 C 172.77 343.72 168.07 343.14 164.46 343.28 C 165.49 337.60 164.98 332.04 164.81 326.34 Z" fill="#fbdbaa" />
<path d="M 186.23 326.12 C 189.32 326.15 192.41 326.17 195.50 326.25 C 195.50 327.08 195.50 327.91 195.50 328.75 C 193.52 328.39 191.54 328.04 189.55 327.70 C 189.54 329.72 189.54 331.75 189.55 333.77 C 191.31 333.56 193.07 333.35 194.83 333.13 C 194.78 334.26 194.74 335.39 194.69 336.51 C 192.99 336.05 191.28 335.62 189.57 335.20 C 189.56 337.33 189.56 339.46 189.58 341.58 C 191.77 341.13 193.95 340.63 196.12 340.10 C 195.83 341.15 195.55 342.20 195.27 343.25 C 192.16 343.25 189.05 343.26 185.94 343.27 C 186.76 337.51 186.56 331.90 186.23 326.12 Z" fill="#fbdbaa" />
<path d="M 212.61 326.58 C 213.83 326.29 215.07 326.10 216.30 325.88 C 216.90 329.85 218.06 333.66 219.20 337.50 C 220.66 333.73 222.12 330.31 221.46 326.17 C 222.65 326.19 223.84 326.20 225.03 326.21 C 225.56 330.09 226.71 333.78 227.95 337.47 C 229.26 333.78 230.44 330.08 231.04 326.19 C 232.10 326.25 233.16 326.31 234.21 326.37 C 231.35 332.16 230.00 338.48 227.11 344.25 C 225.54 340.29 224.30 336.24 223.05 332.18 C 221.97 335.41 221.09 338.77 219.66 341.86 C 219.36 342.45 218.85 342.89 218.12 343.20 C 215.99 337.80 214.37 332.11 212.61 326.58 Z" fill="#fbdbaa" />
<path d="M 240.12 326.18 C 241.44 326.20 242.77 326.22 244.10 326.23 C 243.13 331.85 243.30 337.58 243.95 343.22 C 242.54 343.26 241.13 343.29 239.73 343.33 C 240.97 337.82 240.60 331.78 240.12 326.18 Z" fill="#fbdbaa" />
<path d="M 270.18 326.20 C 271.39 326.18 272.59 326.15 273.80 326.13 C 273.65 328.52 273.52 330.91 273.41 333.31 C 276.01 333.32 278.60 333.32 281.20 333.31 C 280.99 330.96 280.78 328.61 280.55 326.26 C 281.88 326.22 283.22 326.19 284.55 326.16 C 283.98 331.91 283.83 337.60 284.72 343.33 C 283.31 343.28 281.90 343.24 280.49 343.21 C 280.73 340.55 280.90 337.89 281.02 335.22 C 278.49 335.20 275.96 335.20 273.43 335.21 C 273.52 337.90 273.65 340.58 273.86 343.25 C 272.55 343.26 271.25 343.26 269.95 343.26 C 270.67 337.56 270.52 331.92 270.18 326.20 Z" fill="#fbdbaa" />
<path d="M 303.52 326.45 C 304.79 326.24 306.08 326.13 307.36 326.00 C 306.83 330.98 306.23 336.50 307.37 341.42 C 309.58 341.04 311.74 340.48 313.90 339.88 C 313.34 340.99 312.77 342.11 312.22 343.23 C 309.25 343.25 306.28 343.26 303.31 343.28 C 303.88 337.66 303.49 332.07 303.52 326.45 Z" fill="#fbdbaa" />
<path d="M 322.41 326.48 C 326.62 324.42 331.65 326.01 334.06 329.96 C 336.28 333.40 335.59 337.92 332.85 340.86 C 329.28 344.65 322.85 344.48 319.47 340.51 C 315.61 336.19 316.99 328.81 322.41 326.48 Z" fill="#fbdbaa" />
<path d="M 343.49 326.02 C 344.42 330.18 345.88 334.14 347.31 338.14 C 348.84 334.24 350.17 330.30 350.84 326.15 C 351.86 326.19 352.88 326.23 353.90 326.27 C 351.23 332.10 349.58 338.29 347.00 344.15 C 343.96 338.50 342.23 332.30 339.56 326.43 C 340.87 326.29 342.18 326.16 343.49 326.02 Z" fill="#fbdbaa" />
<path d="M 360.18 326.15 C 363.24 326.16 366.31 326.18 369.37 326.25 C 369.36 327.10 369.35 327.96 369.33 328.81 C 367.36 328.41 365.39 328.02 363.41 327.65 C 363.43 329.79 363.46 331.93 363.52 334.06 C 365.27 333.56 366.99 333.03 368.72 332.47 C 368.67 333.81 368.62 335.14 368.57 336.47 C 366.86 336.04 365.14 335.63 363.40 335.26 C 363.40 337.36 363.41 339.46 363.44 341.56 C 365.47 341.17 367.50 340.75 369.53 340.29 C 369.53 341.20 369.53 342.10 369.53 343.01 C 366.39 343.21 363.25 343.27 360.11 343.31 C 360.45 337.59 360.43 331.87 360.18 326.15 Z" fill="#fbdbaa" />
<path d="M 168.30 327.48 C 170.26 328.02 172.88 328.17 174.51 329.48 C 177.28 332.25 177.50 337.79 174.32 340.35 C 172.52 341.23 170.22 341.22 168.27 341.52 C 168.11 336.84 168.12 332.16 168.30 327.48 Z" fill="#3d2012" />
<path d="M 323.34 328.30 C 325.64 326.79 328.85 327.30 330.57 329.45 C 332.68 332.39 332.65 336.63 330.67 339.63 C 328.46 342.74 322.84 342.34 321.40 338.65 C 320.04 335.63 320.20 330.23 323.34 328.30 Z" fill="#3d2012" />
<path d="M 150.23 330.34 C 150.92 331.74 151.60 333.13 152.28 334.53 C 151.26 334.61 150.23 334.69 149.21 334.77 C 149.55 333.30 149.89 331.82 150.23 330.34 Z" fill="#3d2012" />
</svg>